<svg xmlns="http://www.w3.org/2000/svg" id="Layer_1" data-name="Layer 1" viewBox="0 0 3000 1650"><defs><style>.cls-3{fill:#bdccd4}</style></defs><path d="m1271.168 460.78-229.44 55.053s-190.508 65.524 13.466 119.953c0 0 397.023 41.211 146.78 136.606C951.732 867.787 802.61 429.584 802.61 429.584l415.27-2.534 53.29 33.73Z" style="fill:#ff7db8"/><path d="m791.853 353.705-229.44 55.054s-190.508 65.523 13.465 119.953c0 0 397.024 41.21 146.781 136.606C472.417 760.712 323.294 322.51 323.294 322.51l415.27-2.535 53.289 33.73Z" style="fill:#ec291c"/><path d="m1216.252 919.671-229.44 55.054s-190.508 65.523 13.466 119.953c0 0 397.023 41.211 146.78 136.606-250.242 95.395-399.365-342.808-399.365-342.808l415.27-2.535 53.29 33.73Z" style="fill:#f1fa43"/><path d="m702.936 804.16-229.44 55.055s-190.508 65.523 13.466 119.953c0 0 397.023 41.211 146.78 136.606-250.242 95.394-399.365-342.808-399.365-342.808l415.27-2.535 53.29 33.73Z" style="fill:#3dbfaf"/><path d="M1629.874 584.393c-35.956 0-74.01-1.58-101.044-3.16l-3.674-205.557c24.933-1.58 64.301-3.422 98.157-3.422 47.503 0 74.798 18.95 74.798 57.377 0 24.741-12.072 38.164-42.254 48.429 30.182 8.159 45.404 24.214 45.404 48.955 0 37.111-25.458 57.378-71.387 57.378Zm-12.86-174.764c-13.122 0-30.444.789-43.304 1.578l1.05 48.166c14.172.526 30.707.526 44.353.526 18.372 0 30.97-8.159 30.97-25.794 0-16.054-11.285-24.476-33.07-24.476Zm2.625 87.118c-14.435-.264-29.92-.79-44.88-.526l1.313 50.534c16.01 1.053 33.069 2.369 46.979 2.369 18.896 0 28.869-9.212 28.869-25.794 0-17.897-13.122-26.057-32.281-26.583ZM1879.73 585.972l-46.979-71.591c-9.974 0-22.833 0-32.281-.527l1.574 69.486-45.929-.264-5.511-207.664c23.62-1.053 54.852-1.842 86.346-1.842 54.327 0 81.098 27.899 81.098 71.326 0 30.532-15.223 49.482-39.63 59.747l49.865 71.327-48.554 10.002Zm-45.404-176.08c-11.023 0-25.195.79-37.531 1.315l2.362 64.22c12.86.527 25.196 1.053 37.269 1.053 21.258 0 33.855-13.422 33.855-32.11 0-19.74-12.86-34.478-35.955-34.478ZM2021.983 582.287l-45.666-1.054.787-206.085h46.979l-2.1 207.14ZM2094.155 583.603l-7.874-203.453 138.313-4.21 1.311 40.005-91.333 2.632 1.575 44.743 82.935-1.579 1.837 38.954-82.672 1.053 1.574 43.954 86.61-3.948 1.05 36.848-133.326 5ZM2387.05 584.655l-111.279-3.158 3.15-206.874 47.767-.264-2.888 164.237 65.088 2.369-1.837 43.69ZM2540.847 584.655l-111.28-3.158 3.15-206.874 47.765-.264-2.886 164.237 65.088 2.369-1.837 43.69ZM2589.926 583.603l-7.874-203.453 138.311-4.21 1.313 40.005-91.333 2.632 1.575 44.743 82.935-1.579 1.836 38.954-82.671 1.053 1.574 43.954 86.61-3.948 1.049 36.848-133.325 5Z"/><path d="M1597.086 1212.299c-23.013 0-48.244-1.053-66.267-2.106l-4.714-203.452c18.855-.79 46.582-1.843 69.04-1.843 66.544 0 112.016 33.427 112.016 107.123 0 67.115-44.917 100.278-110.075 100.278Zm-1.386-188.187c-18.577 0-36.877.527-46.58 1.053l3.881 164.763c14.14.526 30.499 1.052 47.135 1.052 49.353 0 83.735-26.583 83.735-80.012 0-52.114-32.718-86.856-88.17-86.856ZM1777.582 1215.984l-12.2-204.77 140.02-5.263.832 21.582-116.73 4.475 4.16 71.59 103.421-1.316.555 21.582-102.59 1.317 3.882 67.641 108.69-5.527 1.107 21.583-131.147 7.106ZM2044.865 1217.563c-43.808 0-73.199-18.423-83.458-60.01l23.846-4.737c8.317 29.479 27.726 43.955 60.167 43.955 39.095 0 56.285-17.109 56.285-41.585 0-60.537-129.207-14.213-129.207-91.857 0-36.058 27.727-61.062 73.753-61.062 35.768 0 62.108 15.528 74.862 43.691l-20.517 8.948c-9.982-21.32-29.945-32.636-55.453-32.636-32.164 0-48.246 16.582-48.246 39.743 0 53.166 130.04 8.422 130.04 93.699 0 39.216-30.223 61.851-82.072 61.851ZM2221.479 1213.878l-22.737-.79 3.051-209.769 22.735.263-3.05 210.296ZM2405.581 1212.036c-70.703 0-110.63-40.533-110.63-103.7 0-60.01 43.808-103.438 108.689-103.438 32.995 0 59.058 9.212 77.634 29.742l-16.08 14.739c-12.756-14.476-33.828-24.214-59.89-24.214-54.9 0-85.399 35.795-85.399 84.224 0 52.113 31.609 83.697 85.121 83.697 42.145 0 67.931-23.689 75.971-65.274l-84.289-3.421.555-20.267 108.41 3.686c-1.94 57.377-33.548 104.226-100.092 104.226ZM2733.86 1210.72l-22.735-.79-126.435-162.393 6.377 168.71-22.735.79-8.041-208.717 22.736-.79 128.652 165.553 2.773-163.974 22.735.79-3.327 200.82Z" class="cls-3"/><path d="m1658.568 733.904-88.005-2.105-.76 52.64 70.506 2.105-.508 41.586-69.998-2.632-1.268 73.169-45.144-.526 1.268-208.19 134.67 2.105-.76 41.848ZM1822.652 902.089l-45.396-71.591c-9.638 0-22.066 0-31.195-.526l1.521 69.485-44.383-.264-5.326-207.664c22.826-1.052 53.006-1.841 83.44-1.841 52.499 0 78.368 27.898 78.368 71.326 0 30.53-14.71 49.481-38.296 59.746l48.186 71.327-46.919 10.002Zm-43.875-176.08c-10.652 0-24.347.789-36.267 1.315l2.283 64.22c12.427.527 24.347 1.054 36.013 1.054 20.543 0 32.716-13.423 32.716-32.11 0-19.74-12.426-34.48-34.745-34.48ZM1918.007 899.72l-7.61-203.452 133.657-4.212 1.267 40.006-88.258 2.632 1.522 44.744 80.143-1.58 1.775 38.955-79.889 1.052 1.522 43.954 83.693-3.948 1.015 36.848-128.837 5ZM2270.776 896.035l-43.622.527-91.301-128.705 4.819 131.074-43.622 1.579-5.58-206.349 43.876-.789 92.316 130.283 1.268-128.441 44.383-.527-2.537 201.348ZM2479.24 749.434c-12.681-12.371-30.687-21.583-50.723-21.583-39.818 0-62.644 26.846-62.644 66.063 0 40.796 21.558 67.379 61.629 67.379 19.275 0 36.268-7.106 50.216-18.161l18.767 38.954c-18.513 14.738-43.875 22.897-73.548 22.897-64.418 0-104.236-41.058-104.236-111.859 0-67.905 43.114-110.807 106.773-110.807 29.672 0 55.034 11.318 72.28 31.058l-18.514 36.059ZM2681.11 897.614l-1.267-75.802-87.498 1.58 1.014 76.065-44.382-.264-5.833-205.82h45.65l2.283 86.59 87.497-1.578-2.028-86.856 44.89-.262 4.819 205.557-45.145.79Z"/></svg>